<?xml version="1.0" encoding="UTF-8"?>
<svg version="1.1" xmlns="http://www.w3.org/2000/svg" width="425" height="434">
<path d="M0 0 C1.30707222 -0.00155999 2.61414444 -0.00311998 3.96082491 -0.00472724 C7.57370487 -0.00888912 11.18655831 -0.00684405 14.79943836 -0.00374103 C18.70214507 -0.00147418 22.60484729 -0.00497305 26.5075531 -0.00772095 C34.14897062 -0.01216474 41.7903783 -0.01120809 49.4317962 -0.00830831 C55.64715285 -0.00604766 61.86250675 -0.00574463 68.07786369 -0.00683212 C68.96333989 -0.00698536 69.84881608 -0.00713859 70.76112489 -0.00729647 C72.56018365 -0.0076162 74.35924241 -0.00794042 76.15830117 -0.00826906 C93.02602179 -0.01112007 109.89373699 -0.00784335 126.76145672 -0.00246869 C141.21242875 0.00199359 155.66339274 0.00122744 170.11436462 -0.00338745 C186.91189644 -0.00874923 203.70942349 -0.01083972 220.50695604 -0.00777519 C222.3014456 -0.00745666 224.09593517 -0.00714229 225.89042473 -0.00683212 C227.21463795 -0.00660071 227.21463795 -0.00660071 228.56560295 -0.00636462 C234.76479627 -0.00550387 240.96398655 -0.00695292 247.1631794 -0.00931168 C254.73098587 -0.01212794 262.29878199 -0.0113333 269.86658729 -0.00603093 C273.72258933 -0.00341763 277.57857415 -0.00234821 281.43457603 -0.00568008 C285.62843652 -0.00924879 289.82225421 -0.0049639 294.01611328 0 C295.2159581 -0.00223072 296.41580293 -0.00446144 297.65200669 -0.00675976 C303.78367074 0.00722834 309.9035372 0.14521578 316.02664852 0.46304512 C317.23797449 0.52280749 318.44930046 0.58256987 319.69733328 0.64414322 C324.54279913 1.3628736 327.78970303 3.44248891 330.95249939 7.12698364 C333.57392316 10.89426812 334.38260548 13.63232626 334.63164234 18.19975567 C334.69593799 19.34785446 334.76023364 20.49595324 334.82647765 21.6788429 C335.01276991 26.77607399 335.09399395 31.86214328 335.08621216 36.96263123 C335.08847771 38.07882046 335.09074327 39.1950097 335.09307748 40.34502286 C335.0993532 44.04489628 335.09859231 47.74473247 335.09776306 51.4446106 C335.10075839 54.11331821 335.10413394 56.78202303 335.10794067 59.45072937 C335.11620268 65.92136418 335.1189934 72.39198987 335.11955305 78.86262951 C335.1200299 84.12254948 335.12209298 89.38246646 335.12525368 94.64238548 C335.13404449 109.57686349 335.13867498 124.51133434 335.1379232 139.44581494 C335.13786327 140.6503311 335.13786327 140.6503311 335.13780212 141.87918091 C335.13776124 142.68317812 335.13772036 143.48717534 335.13767824 144.3155361 C335.13727119 157.36523439 335.14685985 170.41490391 335.16094049 183.46459386 C335.17530645 196.88507337 335.1822107 210.30553884 335.18134671 223.72602624 C335.18101505 231.25243008 335.18374956 238.77880368 335.19452477 246.30520058 C335.20363216 252.70708962 335.20580268 259.10893468 335.19901534 265.5108274 C335.19575267 268.77464881 335.19677371 272.03836836 335.20436859 275.30218506 C335.21207609 278.84361697 335.20745187 282.38482719 335.19973755 285.92625427 C335.20488111 286.95242192 335.21002468 287.97858957 335.2153241 289.03585321 C335.18288414 295.77522197 334.83618159 301.93921376 331.32749939 307.87698364 C325.85366244 313.06272391 319.32693576 315.25496542 311.87785339 315.24723816 C310.8542421 315.24861282 309.8306308 315.24998749 308.77600098 315.25140381 C307.65894272 315.24780853 306.54188446 315.24421326 305.39097595 315.24050903 C303.61982674 315.24072807 303.61982674 315.24072807 301.81289673 315.24095154 C298.5797483 315.24037453 295.34664324 315.23536149 292.11350346 315.22837758 C288.73291271 315.22212351 285.3523211 315.22153862 281.97172546 315.22035217 C275.57218518 315.21724492 269.17266199 315.20903968 262.77312922 315.19900268 C255.48659948 315.18782275 248.20006892 315.18232635 240.91353273 315.17730725 C225.9265121 315.16685657 210.93950745 315.14926885 195.95249939 315.12698364 C200.19660224 322.37274282 206.00676634 327.24239409 213.95249939 330.12698364 C216.11238847 330.63582969 218.27991479 331.11290717 220.45249939 331.56448364 C229.41740672 333.51292593 234.50150808 336.80597674 239.82359314 344.25979614 C242.11813648 348.05492319 242.23716356 351.5906095 242.38999939 355.93948364 C242.45058533 357.14217896 242.51117126 358.34487427 242.57359314 359.58401489 C241.92372381 363.29113114 241.01664629 365.2808724 238.2629528 367.86412811 C232.79278695 370.85403007 225.78102707 369.95286046 219.68516541 369.90335083 C218.01091646 369.91148536 216.33667825 369.92217088 214.66246033 369.93521118 C210.12296581 369.96253711 205.58429054 369.95197034 201.04478192 369.93293667 C196.29011683 369.91772974 191.53552117 369.9318387 186.78085327 369.94125366 C178.79554167 369.95216596 170.81056314 369.93779456 162.82530212 369.90921021 C153.60011983 369.87656821 144.37573341 369.88712617 135.15057045 369.92016864 C127.22422185 369.94742025 119.2981125 369.95122688 111.37173218 369.93553662 C106.64026249 369.92619391 101.90916653 369.92490324 97.17772102 369.94475555 C92.72781618 369.96212261 88.27893434 369.95000404 83.82913971 369.91539001 C82.19857162 369.90747412 80.56791704 369.90970512 78.93738365 369.922966 C65.09536387 370.02513879 65.09536387 370.02513879 60.48361206 366.28451538 C58.317166 364.0287143 57.91298348 362.9813442 57.05796814 359.83010864 C57.2908371 350.02743452 59.41162758 343.66785545 66.38999939 336.68948364 C71.43678795 333.61217354 76.10101803 332.05444891 81.82749939 330.75198364 C88.01134827 329.27779131 94.03961323 327.10304083 98.57359314 322.47073364 C99.95249939 321.12698364 99.95249939 321.12698364 101.95249939 321.12698364 C102.61249939 319.47698364 103.27249939 317.82698364 103.95249939 316.12698364 C103.02954118 316.12340111 103.02954118 316.12340111 102.08793736 316.11974621 C87.08833402 316.0605064 72.08890906 315.98489925 57.08948612 315.89126873 C49.8357495 315.84638005 42.58206122 315.80694961 35.32823181 315.7805481 C29.00282367 315.75751168 22.67756939 315.72405116 16.35228342 315.67828208 C13.00571693 315.65442518 9.65944201 315.63720277 6.31277657 315.62936974 C2.56883858 315.61972119 -1.1745484 315.59165093 -4.91835022 315.55935669 C-6.56697304 315.56150932 -6.56697304 315.56150932 -8.24890137 315.56370544 C-15.96065917 315.46987469 -22.88050508 314.81204507 -28.92250061 309.68948364 C-29.62375061 308.84385864 -30.32500061 307.99823364 -31.04750061 307.12698364 C-31.57836948 306.51723403 -32.10923835 305.90748441 -32.65619415 305.27925754 C-34.33740207 302.67852217 -34.42597195 301.20566037 -34.43340397 298.12810135 C-34.44307731 297.11488603 -34.45275065 296.10167071 -34.46271712 295.05775189 C-34.45807131 293.94648521 -34.4534255 292.83521853 -34.44863892 291.6902771 C-34.45883392 289.91727206 -34.45883392 289.91727206 -34.46923488 288.10844874 C-34.48495866 284.82638012 -34.48718659 281.54462092 -34.48365176 278.26252651 C-34.48304007 274.72317906 -34.49959294 271.18390543 -34.51382446 267.64459229 C-34.53875444 260.70949169 -34.54698949 253.77446758 -34.5486616 246.83932593 C-34.55008679 241.2016065 -34.55624959 235.56391232 -34.56576347 229.92620087 C-34.59218772 213.94246271 -34.60602114 197.95878501 -34.60377205 181.97502485 C-34.60365218 181.11315953 -34.60353231 180.25129422 -34.60340881 179.36331177 C-34.60328617 178.50039397 -34.60316353 177.63747618 -34.60303717 176.74840936 C-34.6018181 162.76686725 -34.63051748 148.78556764 -34.67282391 134.80409566 C-34.71592035 120.44823555 -34.73663413 106.0924937 -34.73404258 91.73656726 C-34.73304674 83.67673427 -34.74128435 75.6171554 -34.77357674 67.55738068 C-34.80089907 60.69404179 -34.80741235 53.83107216 -34.78704847 46.96770242 C-34.77725509 43.46676433 -34.77707098 39.96653454 -34.80310822 36.46566391 C-34.82621927 32.66701646 -34.81237048 28.87023131 -34.78921509 25.07162476 C-34.80464578 23.96928096 -34.82007647 22.86693717 -34.83597475 21.73118901 C-34.7503175 15.37570384 -33.79449561 11.59735816 -29.66351455 6.69509196 C-21.52122627 -1.20582378 -10.57745648 -0.0194127 0 0 Z M-19.87494165 15.38055772 C-21.34210317 17.56576886 -21.42053774 18.8243055 -21.4166441 21.44732189 C-21.42261671 22.33487226 -21.42858932 23.22242264 -21.43474293 24.13686848 C-21.42600493 25.11226172 -21.41726694 26.08765497 -21.40826416 27.09260559 C-21.41083221 28.12580429 -21.41340027 29.15900299 -21.41604614 30.22351074 C-21.42103075 33.71321905 -21.40441071 37.20250004 -21.38807678 40.69216919 C-21.38715825 43.22564842 -21.38755744 45.75912842 -21.38917255 48.29260731 C-21.38978256 54.40363758 -21.37690084 60.51450872 -21.35766857 66.62550457 C-21.33609282 73.69228545 -21.33368566 80.75901993 -21.33131409 87.82583618 C-21.3155545 106.48873963 -21.27367127 125.15161361 -21.23500061 143.81448364 C-21.17312561 185.49760864 -21.11125061 227.18073364 -21.04750061 270.12698364 C91.81249939 270.12698364 204.67249939 270.12698364 320.95249939 270.12698364 C321.01437439 228.44385864 321.07624939 186.76073364 321.13999939 143.81448364 C321.1673114 130.63341675 321.19462341 117.45234985 321.22276306 103.87185669 C321.23279387 92.09772609 321.23279387 92.09772609 321.23883057 80.32359314 C321.24163531 75.0628506 321.25266978 69.80220012 321.26922607 64.54148865 C321.2902811 57.84145423 321.29598758 51.14157509 321.29171622 44.44150126 C321.29261005 41.97612923 321.29860536 39.51075284 321.31014478 37.04540765 C321.32495884 33.72763737 321.32150941 30.41038658 321.31326294 27.09260559 C321.32200093 26.11721234 321.33073893 25.1418191 321.33974171 24.13686848 C321.33376909 23.2493181 321.32779648 22.36176773 321.32164288 21.44732189 C321.32278204 20.6799071 321.3239212 19.91249232 321.32509488 19.12182254 C320.83249196 16.4844759 320.16288179 15.64324492 317.95249939 14.12698364 C315.34566756 13.6753682 315.34566756 13.6753682 312.34429932 13.74946022 C311.16975535 13.74163698 309.99521139 13.73381374 308.78507519 13.72575343 C306.84021457 13.73579167 306.84021457 13.73579167 304.85606384 13.74603271 C303.46967608 13.74257798 302.08329105 13.73781465 300.69691181 13.73185098 C296.87847861 13.71928591 293.0602693 13.72553621 289.24183512 13.73480964 C285.12725689 13.74157736 281.01271807 13.73113025 276.89814758 13.72286987 C268.83425826 13.70950593 260.77045254 13.71242209 252.7065599 13.7211078 C246.15487591 13.72787349 239.60321541 13.7288059 233.05152893 13.72553635 C231.65465582 13.7248468 231.65465582 13.7248468 230.22956306 13.72414332 C228.33795285 13.72318418 226.44634264 13.72221154 224.55473244 13.72122554 C206.80274509 13.71266386 189.05080417 13.72251798 171.29882443 13.73862664 C156.05542981 13.75203053 140.81210371 13.74970266 125.56871033 13.73587036 C107.88173767 13.71982829 90.19480572 13.7134879 72.50782681 13.72270715 C70.62304116 13.72366283 68.73825551 13.72460595 66.85346985 13.72553635 C65.9260359 13.72599917 64.99860195 13.726462 64.04306394 13.72693885 C57.49664066 13.72953286 50.95024314 13.7251489 44.40382385 13.71809769 C36.42965432 13.70969771 28.45557341 13.71193107 20.48141408 13.72793992 C16.41018624 13.73584297 12.33910635 13.73887982 8.26787949 13.72899246 C4.54468736 13.72008686 0.82178105 13.72490949 -2.90138495 13.74092512 C-4.89428233 13.74589122 -6.88719938 13.73603951 -8.88007641 13.72575343 C-10.05462037 13.73357667 -11.22916433 13.74139991 -12.43930054 13.74946022 C-13.45722341 13.74994728 -14.47514627 13.75043433 -15.52391529 13.75093615 C-18.06214607 13.94087226 -18.06214607 13.94087226 -19.87494165 15.38055772 Z M-21.04750061 284.12698364 C-21.04750061 288.74698364 -21.04750061 293.36698364 -21.04750061 298.12698364 C-16.86143059 301.26653616 -16.23078343 301.50215567 -11.35028076 301.50450706 C-10.18132924 301.51233031 -9.01237772 301.52015355 -7.80800343 301.52821386 C-6.52280654 301.52152169 -5.23760965 301.51482953 -3.91346741 301.50793457 C-2.53517886 301.51139041 -1.15689308 301.51615447 0.22138691 301.5221163 C4.01282767 301.53466627 7.80404257 301.52843788 11.59548426 301.51915765 C15.68279729 301.51238379 19.77007085 301.5228401 23.8573761 301.53109741 C31.86598446 301.54445476 39.8745086 301.54154811 47.8831203 301.53285949 C54.39043543 301.52609121 60.89772692 301.52516251 67.40504456 301.52843094 C68.33031836 301.52889064 69.25559216 301.52935034 70.20890456 301.52982397 C72.08843351 301.53078312 73.96796245 301.53175576 75.84749138 301.53274174 C93.4821979 301.5413015 111.11685767 301.53145232 128.75155652 301.51534064 C143.89115203 301.50193693 159.03067855 301.50426486 174.17027283 301.51809692 C191.74080002 301.5341424 209.31128623 301.54047747 226.88181973 301.53126013 C228.75453122 301.53030446 230.62724272 301.52936135 232.49995422 301.52843094 C233.42142425 301.52796811 234.34289428 301.52750529 235.29228765 301.52702843 C241.79366908 301.52443544 248.29502456 301.52881619 254.79640198 301.5358696 C262.71672012 301.54427334 270.63694905 301.54202823 278.55725694 301.52602737 C282.60026223 301.51812943 286.64311862 301.51507885 290.68612289 301.52497482 C294.38465571 301.5338909 298.08290111 301.52904027 301.78140771 301.51304217 C303.75860613 301.50808466 305.73582438 301.51791847 307.7130022 301.52821386 C308.88195373 301.52039062 310.05090525 301.51256737 311.25527954 301.50450706 C312.77166787 301.50377648 312.77166787 301.50377648 314.3186903 301.50303113 C317.42273066 301.27524918 317.42273066 301.27524918 320.95249939 298.12698364 C320.95249939 293.50698364 320.95249939 288.88698364 320.95249939 284.12698364 C208.09249939 284.12698364 95.23249939 284.12698364 -21.04750061 284.12698364 Z M118.95249939 315.12698364 C117.63249939 318.42698364 116.31249939 321.72698364 114.95249939 325.12698364 C113.63249939 327.10698364 112.31249939 329.08698364 110.95249939 331.12698364 C136.69249939 331.12698364 162.43249939 331.12698364 188.95249939 331.12698364 C188.45749939 329.64198364 188.45749939 329.64198364 187.95249939 328.12698364 C187.29249939 328.12698364 186.63249939 328.12698364 185.95249939 328.12698364 C185.95249939 327.13698364 185.95249939 326.14698364 185.95249939 325.12698364 C185.29249939 325.12698364 184.63249939 325.12698364 183.95249939 325.12698364 C182.96249939 321.82698364 181.97249939 318.52698364 180.95249939 315.12698364 C160.49249939 315.12698364 140.03249939 315.12698364 118.95249939 315.12698364 Z M72.95249939 349.12698364 C71.09491425 351.7922145 70.95249939 352.83645547 70.95249939 356.12698364 C123.09249939 356.12698364 175.23249939 356.12698364 228.95249939 356.12698364 C227.87180151 350.72349423 226.98366188 349.58226578 222.95249939 346.12698364 C219.81746562 345.08197239 217.61450736 344.9935918 214.32389832 344.97981262 C213.15190887 344.97265732 211.97991943 344.96550201 210.77241516 344.95812988 C209.48509491 344.95544098 208.19777466 344.95275208 206.8714447 344.94998169 C205.50306526 344.94371569 204.13468753 344.93706876 202.76631165 344.93006897 C198.27109458 344.90904161 193.77587723 344.89866751 189.28062439 344.88870239 C187.7320682 344.88465428 186.18351219 344.88053734 184.63495636 344.87635231 C177.35900998 344.85730318 170.08307373 344.84307183 162.80710721 344.83474034 C154.41351306 344.82496995 146.02018276 344.79865462 137.62668157 344.75823945 C131.13569265 344.7280596 124.64477928 344.71326968 118.15372157 344.70995933 C114.27847633 344.70761086 110.40351306 344.69867738 106.5283432 344.67349815 C102.88061664 344.65017956 99.23335694 344.64599908 95.5855751 344.65625954 C93.61524197 344.6569892 91.64493236 344.63792438 89.67469788 344.61819458 C82.9007969 344.6579461 78.40514714 344.94876826 72.95249939 349.12698364 Z " fill="#171717" transform="translate(67.04750061035156,31.873016357421875)"/>
<path d="M0 0 C4.54984649 2.5864981 8.03202348 5.99848888 9.51953125 11.12109375 C10.23404961 16.59162493 10.50100248 22.05373092 7.89453125 27.05859375 C3.96907287 32.12036903 0.01827351 35.84683056 -6.48046875 37.12109375 C-13.18546666 37.33335625 -18.32148203 35.40169185 -23.48046875 31.12109375 C-24.14046875 30.13109375 -24.80046875 29.14109375 -25.48046875 28.12109375 C-25.62899242 32.74741578 -25.73775894 37.37234617 -25.81005859 42.00048828 C-25.84019956 43.57397638 -25.88112169 45.14729687 -25.93310547 46.72021484 C-26.00605366 48.98446962 -26.03994681 51.24650189 -26.06640625 53.51171875 C-26.09737396 54.21290833 -26.12834167 54.9140979 -26.1602478 55.63653564 C-26.22603346 57.90192957 -26.22603346 57.90192957 -25.48046875 61.12109375 C-22.64134673 63.52842235 -22.64134673 63.52842235 -19.48046875 65.12109375 C-14.93247041 71.11517894 -13.92188516 77.78008495 -12.99609375 85.06640625 C-11.83822234 91.92591719 -8.67924765 96.55631228 -3.48046875 101.12109375 C-2.75859375 101.82234375 -2.03671875 102.52359375 -1.29296875 103.24609375 C4.61646227 107.18571443 12.44471644 109.40187919 19.51953125 108.12109375 C28.66049624 105.56298788 35.55955762 102.35128027 40.71875 94.234375 C43.51445508 88.77807326 44.46639483 82.90135645 45.30566406 76.88110352 C46.0707749 71.93035059 47.42516912 68.94739154 50.51953125 65.12109375 C51.17953125 65.12109375 51.83953125 65.12109375 52.51953125 65.12109375 C52.51953125 64.46109375 52.51953125 63.80109375 52.51953125 63.12109375 C53.83953125 62.46109375 55.15953125 61.80109375 56.51953125 61.12109375 C56.84953125 49.90109375 57.17953125 38.68109375 57.51953125 27.12109375 C56.85953125 27.12109375 56.19953125 27.12109375 55.51953125 27.12109375 C55.25140625 27.71921875 54.98328125 28.31734375 54.70703125 28.93359375 C52.34366827 33.28715713 49.33462732 35.03091415 44.76171875 36.60546875 C39.12027755 37.90280366 34.20360432 36.79565788 29.20703125 33.99609375 C24.62529491 30.80165606 22.35263834 27.33202733 20.95703125 21.953125 C19.80811143 14.99976649 21.61321356 9.98057029 25.51953125 4.12109375 C26.17953125 4.12109375 26.83953125 4.12109375 27.51953125 4.12109375 C27.51953125 3.46109375 27.51953125 2.80109375 27.51953125 2.12109375 C33.20374562 -2.27369581 39.67500866 -1.59556803 46.51953125 -0.87890625 C51.43527452 1.36336261 54.39665204 4.80417249 57.51953125 9.12109375 C57.51953125 10.11109375 57.51953125 11.10109375 57.51953125 12.12109375 C58.10476562 12.22808594 58.69 12.33507812 59.29296875 12.4453125 C61.81373221 13.21038632 63.1656699 14.2118972 65.14453125 15.93359375 C66.03011719 16.68576172 66.03011719 16.68576172 66.93359375 17.453125 C71.01806198 21.74885883 70.78720114 26.14250436 70.71484375 31.82421875 C70.71201385 32.66200867 70.70918396 33.49979858 70.70626831 34.36297607 C70.69509474 37.03249538 70.66999546 39.70167625 70.64453125 42.37109375 C70.63449779 44.1835889 70.62537258 45.99608931 70.6171875 47.80859375 C70.59516465 52.24622368 70.56065429 56.68360138 70.51953125 61.12109375 C71.67582031 61.54648438 71.67582031 61.54648438 72.85546875 61.98046875 C77.17786832 63.8311149 79.61385276 66.87188204 82.33203125 70.62109375 C86.48804437 82.87039557 82.37355578 97.36686962 77.09106445 108.76904297 C69.13118187 124.88225461 55.92495142 137.18367816 38.87817383 143.26196289 C33.14489183 145.20316397 27.58713025 146.7496081 21.51953125 147.12109375 C22.50088248 152.96301987 23.63508709 157.87664982 26.51953125 163.12109375 C26.51953125 163.78109375 26.51953125 164.44109375 26.51953125 165.12109375 C27.09703125 165.40984375 27.67453125 165.69859375 28.26953125 165.99609375 C30.51953125 167.12109375 30.51953125 167.12109375 32.12335205 168.17225647 C35.71497641 169.59446524 39.30028481 169.42438307 43.10839844 169.42749023 C43.97395355 169.43581375 44.83950867 169.44413727 45.73129272 169.45271301 C48.59304302 169.47680923 51.45456525 169.48558549 54.31640625 169.4921875 C56.30934721 169.50115544 58.30228747 169.51027732 60.29522705 169.51954651 C64.47482946 169.53603896 68.65435175 169.54373686 72.83398438 169.54663086 C78.17834687 169.55200912 83.52195154 169.58966526 88.86610031 169.63537502 C92.98405677 169.66518545 97.10183182 169.67235532 101.21988678 169.67335701 C103.18939935 169.67755284 105.15891278 169.68996145 107.12831879 169.71087456 C109.89046641 169.73786622 112.65087181 169.73294016 115.41308594 169.72045898 C116.21960602 169.73529327 117.0261261 169.75012756 117.85708618 169.76541138 C123.82973588 169.68893199 127.89079357 167.90320203 132.51953125 164.12109375 C136.08786744 159.40168138 136.63655612 155.14517341 136.72485352 149.34277344 C136.74479874 148.18187195 136.76474396 147.02097046 136.78529358 145.82489014 C136.80200607 144.57685608 136.81871857 143.32882202 136.8359375 142.04296875 C136.86710915 140.12040253 136.86710915 140.12040253 136.89891052 138.15899658 C136.95397872 134.75933103 137.00345489 131.35960637 137.05175781 127.95983887 C137.10208457 124.48749561 137.15771218 121.0152377 137.21289062 117.54296875 C137.32028547 110.73575114 137.42177152 103.92845636 137.51953125 97.12109375 C136.25423584 96.9710791 134.98894043 96.82106445 133.68530273 96.66650391 C120.92108909 95.15316638 111.6972625 87.21953718 103.53125 77.78515625 C97.68755649 70.04651746 95.48309699 61.65115495 94.51953125 52.12109375 C94.43574219 51.39664063 94.35195312 50.6721875 94.265625 49.92578125 C93.46267773 36.30157917 98.92078177 24.26247603 107.51953125 14.12109375 C115.45957401 5.49061249 126.60212712 -0.67177645 138.41015625 -1.21484375 C156.87214392 -1.52633738 156.87214392 -1.52633738 165.51953125 3.12109375 C166.38707031 3.56839844 167.25460937 4.01570313 168.1484375 4.4765625 C173.78721264 7.61108281 178.31533241 11.23600924 182.51953125 16.12109375 C183.19435547 16.90226562 183.19435547 16.90226562 183.8828125 17.69921875 C192.62281601 28.84745852 194.71550734 42.36248053 193.51953125 56.12109375 C190.82227115 70.27014961 183.44219026 81.84353994 171.66015625 90.1328125 C166.79202547 93.14071196 162.34125069 95.24456063 156.80810547 96.71533203 C155.81769257 96.98016388 154.82727966 97.24499573 153.80685425 97.51785278 C153.05203766 97.7169223 152.29722107 97.91599182 151.51953125 98.12109375 C151.50740097 99.2440963 151.50740097 99.2440963 151.49502563 100.38978577 C151.41688862 107.46621622 151.32954118 114.54246022 151.23200417 121.61864567 C151.18218731 125.25606073 151.13585685 128.89344879 151.09765625 132.53100586 C151.06061773 136.04543281 151.01420925 139.55962551 150.96146774 143.07385063 C150.93408217 145.05835653 150.91624932 147.04298687 150.89859009 149.02760315 C150.70023506 161.21397124 148.49370921 168.20690872 139.703125 176.921875 C129.35661594 185.62676676 115.29642999 184.55689399 102.578125 184.484375 C100.76074728 184.48385503 98.94336899 184.48437803 97.12599182 184.48588562 C93.33626799 184.48579643 89.54675923 184.47547494 85.75708008 184.45727539 C80.92689497 184.43457409 76.09702279 184.43405296 71.26679897 184.44079304 C67.52017999 184.44415202 63.77363089 184.43746704 60.02702522 184.4276638 C58.24703399 184.42384594 56.46703494 184.42264922 54.68704033 184.42424965 C29.47967219 184.42804088 29.47967219 184.42804088 21.89453125 178.68359375 C21.07726562 178.08675781 20.26 177.48992187 19.41796875 176.875 C17.51953125 175.12109375 17.51953125 175.12109375 16.51953125 172.12109375 C15.85953125 172.12109375 15.19953125 172.12109375 14.51953125 172.12109375 C9.85819382 163.57244172 8.34963354 156.80526321 8.51953125 147.12109375 C7.17375 146.93546875 7.17375 146.93546875 5.80078125 146.74609375 C-12.56807368 143.70991938 -27.86279841 134.81490816 -39.48046875 120.12109375 C-39.93035156 119.569375 -40.38023438 119.01765625 -40.84375 118.44921875 C-49.09863803 107.71530862 -52.66769412 94.66718302 -52.91796875 81.30859375 C-52.95144409 80.25067627 -52.95144409 80.25067627 -52.9855957 79.17138672 C-52.96196331 73.75637502 -51.52858593 70.59575206 -48.48046875 66.12109375 C-46.20575464 64.06301908 -44.21323055 62.48747465 -41.48046875 61.12109375 C-41.46588623 60.09749756 -41.45130371 59.07390137 -41.4362793 58.01928711 C-41.3780037 54.19651564 -41.30077454 50.3743153 -41.21801758 46.55200195 C-41.18490515 44.90235715 -41.15683119 43.25260279 -41.1340332 41.6027832 C-41.10023342 39.22169607 -41.04790871 36.84160069 -40.9921875 34.4609375 C-40.98260262 33.36675758 -40.98260262 33.36675758 -40.9728241 32.25047302 C-40.77121912 25.1189086 -38.54858502 19.33401334 -33.48046875 14.12109375 C-32.49046875 13.66734375 -31.50046875 13.21359375 -30.48046875 12.74609375 C-26.40634311 10.5392757 -25.49678742 8.23128182 -23.48046875 4.12109375 C-22.82046875 4.12109375 -22.16046875 4.12109375 -21.48046875 4.12109375 C-21.48046875 3.46109375 -21.48046875 2.80109375 -21.48046875 2.12109375 C-15.28375161 -2.12808372 -7.02726687 -2.48997645 0 0 Z M-13.29296875 13.18359375 C-15.1585886 16.22749982 -14.17925484 18.75421532 -13.48046875 22.12109375 C-10.68001829 22.97760028 -10.68001829 22.97760028 -7.48046875 23.12109375 C-4.91708186 21.64116219 -4.91708186 21.64116219 -3.48046875 19.12109375 C-3.39241729 16.47771635 -3.39241729 16.47771635 -4.48046875 14.12109375 C-7.70612134 11.97065869 -9.74593835 11.10430007 -13.29296875 13.18359375 Z M35.76953125 13.30859375 C34.07637012 15.76367739 34.08082105 17.19635906 34.51953125 20.12109375 C35.51953125 22.12109375 35.51953125 22.12109375 37.51953125 23.12109375 C40.60286458 23.12109375 40.60286458 23.12109375 43.51953125 22.12109375 C45.8009207 19.36411191 45.8009207 19.36411191 45.33203125 16.55859375 C44.68580683 13.78854258 44.68580683 13.78854258 41.51953125 12.12109375 C37.71870418 11.74675947 37.71870418 11.74675947 35.76953125 13.30859375 Z M116.51953125 24.12109375 C108.97603593 35.03125643 107.29162476 44.06230822 108.51953125 57.12109375 C109.33943501 60.57773349 110.5512882 63.18095429 112.51953125 66.12109375 C112.95523438 66.81332031 113.3909375 67.50554687 113.83984375 68.21875 C118.75578652 75.40462262 126.20983703 81.57872405 134.8046875 83.6796875 C146.01878027 85.50298604 156.07687292 84.01451299 165.5390625 77.6875 C173.72532779 71.21276157 178.39036581 63.28935111 180.51953125 53.12109375 C181.53044643 42.03990809 178.56356533 32.71580512 171.51953125 24.12109375 C164.0851503 16.44744537 155.41463042 12.12255101 144.64453125 11.80859375 C134.22124324 12.00378641 123.66788491 16.31260189 116.51953125 24.12109375 Z M-34.48046875 73.12109375 C-37.3349219 74.45281498 -37.3349219 74.45281498 -39.48046875 77.12109375 C-41.22272772 89.31690654 -35.09482906 100.72299083 -29.48046875 111.12109375 C-28.82046875 111.12109375 -28.16046875 111.12109375 -27.48046875 111.12109375 C-27.22265625 111.70375 -26.96484375 112.28640625 -26.69921875 112.88671875 C-25.38212858 115.30138405 -23.92958491 116.93849552 -21.98046875 118.87109375 C-21.37203125 119.4846875 -20.76359375 120.09828125 -20.13671875 120.73046875 C-18.58562598 122.33543463 -18.58562598 122.33543463 -16.48046875 122.12109375 C-16.48046875 122.78109375 -16.48046875 123.44109375 -16.48046875 124.12109375 C-14.58592051 125.08196511 -12.68977294 126.03968344 -10.79296875 126.99609375 C-9.73722656 127.52976563 -8.68148437 128.0634375 -7.59375 128.61328125 C3.39522681 133.93542058 18.23638247 135.30035248 30.19140625 131.9921875 C46.22682636 125.99235749 57.80555839 116.73054472 65.51953125 101.12109375 C68.75714886 93.380161 71.33622299 84.53665108 69.51953125 76.12109375 C67.75762775 74.17141018 67.75762775 74.17141018 65.51953125 73.12109375 C62.8248876 73.54885981 62.8248876 73.54885981 60.51953125 75.12109375 C58.44456847 78.35126631 58.15798896 81.34750455 57.76953125 85.12109375 C56.25913175 95.55338798 51.47868107 105.08998709 43.51953125 112.12109375 C40.32533937 114.45041308 37.05316049 116.35427913 33.51953125 118.12109375 C32.85695313 118.46269531 32.194375 118.80429688 31.51171875 119.15625 C22.9434716 122.76835419 10.29016994 122.65987112 1.45703125 119.93359375 C0.12523307 119.37324813 -1.18865048 118.7683025 -2.48046875 118.12109375 C-3.23457031 117.76917969 -3.98867187 117.41726562 -4.765625 117.0546875 C-15.68077203 111.533336 -21.77722026 102.70418732 -25.8671875 91.37109375 C-26.90493059 87.56383248 -27.37464855 83.66948515 -27.85546875 79.7578125 C-28.53957167 76.8717533 -29.12755458 75.86881125 -31.48046875 74.12109375 C-32.47046875 73.79109375 -33.46046875 73.46109375 -34.48046875 73.12109375 Z " fill="#181819" transform="translate(146.48046875,82.87890625)"/>
<path d="M0 0 C1.05824051 -0.00843994 2.11648103 -0.01687988 3.20678943 -0.02557558 C4.36319889 -0.01956553 5.51960835 -0.01355549 6.71106052 -0.00736332 C7.94433207 -0.01274886 9.17760361 -0.01813439 10.44824702 -0.02368313 C13.86881053 -0.03551911 17.28888717 -0.0338892 20.70943153 -0.02651632 C24.39935918 -0.02179014 28.08923435 -0.0342896 31.77914524 -0.04453373 C39.00689034 -0.06173784 46.23454856 -0.06255842 53.46230882 -0.05732083 C59.33648017 -0.05328093 65.21062583 -0.05472054 71.08479595 -0.06006908 C72.33841991 -0.06119172 72.33841991 -0.06119172 73.61736961 -0.06233703 C75.31514156 -0.06386849 77.0129135 -0.06540684 78.71068544 -0.066952 C94.63531727 -0.08068284 110.55989998 -0.07523522 126.48453069 -0.06376678 C141.05575891 -0.05383354 155.62686016 -0.0667756 170.19806879 -0.09070098 C185.15737344 -0.11507867 200.11661893 -0.12470314 215.07594305 -0.11804825 C223.47545028 -0.1145531 231.87485985 -0.11680759 240.27435207 -0.13429928 C247.42459446 -0.14900464 254.57467041 -0.14967859 261.72490948 -0.13222837 C265.37329687 -0.12370219 269.02138674 -0.12160789 272.6697588 -0.13687992 C276.62402752 -0.15322758 280.57783467 -0.13861137 284.53210545 -0.12088871 C285.68628418 -0.13049372 286.84046292 -0.14009872 288.02961677 -0.14999479 C294.03650561 -0.09442289 298.09499787 0.06770204 302.68507481 4.38031673 C306.29993004 8.6801658 306.11640066 12.81197593 306.08621311 18.17264462 C306.09300978 19.05810864 306.09980645 19.94357267 306.10680908 20.85586894 C306.12579982 23.82295917 306.12334303 26.78963729 306.12086582 29.75678158 C306.12984214 31.88407072 306.14005009 34.01135497 306.15139866 36.13863277 C306.17791487 41.91757412 306.18493279 47.69638222 306.18684602 53.47537851 C306.18969419 58.29900606 306.20073003 63.12260254 306.2113623 67.94621813 C306.2357942 79.32595971 306.24311514 90.70563007 306.24098301 102.08539486 C306.23918031 113.82629411 306.27084296 125.56678 306.318214 137.30757463 C306.35743225 147.38670212 306.37353507 157.46569445 306.37161678 167.54489768 C306.37085161 173.56525202 306.37941698 179.58523901 306.41115093 185.60551739 C306.44018155 191.26754835 306.44044135 196.92886042 306.41860104 202.59091663 C306.41546191 204.66819018 306.42256197 206.74550839 306.44068241 208.82270527 C306.46383468 211.66065674 306.44992226 214.49612375 306.42678928 217.33402157 C306.44993532 218.56482451 306.44993532 218.56482451 306.47354895 219.82049215 C306.37490502 225.30274602 304.93304862 228.092531 301.16681141 232.0694443 C298.37070465 234.54312233 296.3412028 234.50681826 292.70526505 234.5117445 C291.64541419 234.51558564 290.58556333 234.51942679 289.49359578 234.52338433 C288.31998378 234.52251785 287.14637178 234.52165137 285.93719578 234.52075863 C284.69761484 234.52372975 283.4580339 234.52670087 282.1808899 234.52976203 C278.72896798 234.53695838 275.2770958 234.53962259 271.82516992 234.5403595 C268.10659593 234.54220696 264.3880328 234.54975275 260.66946507 234.55649471 C252.53314512 234.57009132 244.39683009 234.57610484 236.26050067 234.58050537 C231.18256033 234.5832656 226.1046219 234.58750255 221.02668285 234.59200954 C206.97440269 234.60420404 192.92212406 234.61450293 178.86983871 234.61788464 C177.52010006 234.61821399 177.52010006 234.61821399 176.14309396 234.61854999 C175.24108327 234.61876827 174.33907258 234.61898654 173.40972823 234.61921144 C171.58183269 234.61965491 169.75393714 234.62010147 167.9260416 234.62055111 C167.01933727 234.62077254 166.11263293 234.62099397 165.17845271 234.62122211 C150.48352014 234.6251709 135.78863715 234.64262657 121.09372374 234.66591063 C106.01587883 234.6896091 90.93805882 234.7020858 75.86019498 234.70325255 C67.39082092 234.70417017 58.92151142 234.70994427 50.45215511 234.72807217 C43.24072592 234.74345289 36.02938124 234.74860566 28.81793877 234.74033406 C25.13733244 234.7364203 21.45689642 234.7373923 17.77631092 234.75139141 C13.78876812 234.76641956 9.8014666 234.75828527 5.81390476 234.74780941 C4.64698493 234.75586581 3.48006509 234.76392222 2.27778405 234.77222276 C0.6762729 234.76233799 0.6762729 234.76233799 -0.95759201 234.75225353 C-2.33833765 234.75314916 -2.33833765 234.75314916 -3.74697715 234.75406289 C-7.83056819 234.15972592 -10.4823373 232.37552758 -13.10319519 229.2427578 C-14.77602808 225.29106432 -14.73354372 221.83168338 -14.70260525 217.58125973 C-14.70799079 216.69509014 -14.71337632 215.80892054 -14.71892506 214.89589733 C-14.73323271 211.92645122 -14.72609395 208.95744912 -14.71897793 205.98798275 C-14.72468002 203.85907285 -14.73164365 201.73016601 -14.73977566 199.601264 C-14.75773982 193.81823982 -14.75653254 188.03536711 -14.75083327 182.25232339 C-14.74774618 177.42611944 -14.75382853 172.59994479 -14.75987202 167.773745 C-14.77392631 156.38924094 -14.77234838 145.00481191 -14.76097012 133.62030697 C-14.74948733 121.87152186 -14.76356535 110.12296497 -14.79036659 98.37420994 C-14.81251023 88.29000602 -14.81916399 78.20587381 -14.81329018 68.1216473 C-14.8099163 62.09750463 -14.81236441 56.07350828 -14.82954121 50.04938602 C-14.8449869 44.38500971 -14.84108096 38.72097198 -14.82223606 33.05660915 C-14.81854364 30.97731434 -14.82167757 28.89799458 -14.83212185 26.81872272 C-14.84528856 23.98087535 -14.8338224 21.144156 -14.81613064 18.30635738 C-14.82573564 17.48290925 -14.83534065 16.65946112 -14.84523672 15.81106001 C-14.7778383 10.55916854 -13.87787183 7.48750093 -10.31492519 3.38031673 C-6.7612507 0.85689362 -4.34167718 0.00489793 0 0 Z M-0.31492519 14.38031673 C-0.31492519 82.69031673 -0.31492519 151.00031673 -0.31492519 221.38031673 C96.04507481 221.38031673 192.40507481 221.38031673 291.68507481 221.38031673 C291.68507481 153.07031673 291.68507481 84.76031673 291.68507481 14.38031673 C195.32507481 14.38031673 98.96507481 14.38031673 -0.31492519 14.38031673 Z " fill="#181818" transform="translate(71.31492519378662,56.619683265686035)"/>
<path d="M0 0 C6.05324825 5.62358136 8.52457206 11.37210796 9.18359375 19.67578125 C8.98522197 26.51299518 6.03465349 32.40372033 1.87109375 37.73828125 C0.88109375 38.06828125 -0.10890625 38.39828125 -1.12890625 38.73828125 C-1.12890625 39.39828125 -1.12890625 40.05828125 -1.12890625 40.73828125 C-8.2916461 44.88415651 -14.93222348 45.77452433 -23.12890625 44.73828125 C-26.12948814 43.79427796 -28.54200605 42.51021528 -31.12890625 40.73828125 C-32.01578125 40.18140625 -32.90265625 39.62453125 -33.81640625 39.05078125 C-39.50509236 33.36209514 -41.46588366 28.26237685 -41.69140625 20.17578125 C-41.32981487 11.11791716 -39.32959491 6.61343037 -32.87890625 0.36328125 C-23.43084737 -7.44363753 -9.83334472 -7.55994759 0 0 Z M-26.12890625 12.73828125 C-28.41744619 16.00762403 -28.60052843 18.80809645 -28.12890625 22.73828125 C-25.84165249 27.05864946 -23.65805491 29.79721754 -19.12890625 31.73828125 C-15.67637821 32.16984725 -13.65177019 31.95715453 -10.44140625 30.61328125 C-7.43087891 28.17231314 -6.35939053 26.42973408 -5.12890625 22.73828125 C-4.9330765 18.22636385 -5.26503764 14.85295042 -8.06640625 11.23828125 C-13.96065533 6.95155465 -21.13020984 7.2851579 -26.12890625 12.73828125 Z " fill="#1A1A1A" transform="translate(307.12890625,111.26171875)"/>
<path d="M0 0 C41.91 0 83.82 0 127 0 C123.18115152 1.90942424 121.95914097 2.24887789 117.925354 2.24050903 C116.90174271 2.24325836 115.87813141 2.24600769 114.82350159 2.24884033 C113.70644333 2.24164978 112.58938507 2.23445923 111.43847656 2.22705078 C110.25771042 2.22734283 109.07694427 2.22763489 107.86039734 2.22793579 C104.62719692 2.22678175 101.39416994 2.2167558 98.16100407 2.20278788 C94.78041908 2.19027976 91.39983063 2.18910995 88.01922607 2.18673706 C81.61966116 2.18052253 75.22016464 2.16411209 68.82062984 2.14403808 C61.53410735 2.12167824 54.2475816 2.11068544 46.96103334 2.10064721 C31.97398414 2.07974582 16.98699891 2.04457038 2 2 C1.67 2.66 1.34 3.32 1 4 C0.67 2.68 0.34 1.36 0 0 Z " fill="#8A8A8B" transform="translate(261,345)"/>
<path d="M0 0 C0.66 0 1.32 0 2 0 C2 0.66 2 1.32 2 2 C2.66 2 3.32 2 4 2 C4 2.66 4 3.32 4 4 C-23.72 4 -51.44 4 -80 4 C-80 3.34 -80 2.68 -80 2 C-76.46029903 0.82009968 -73.27272521 0.86781105 -69.59106445 0.88647461 C-68.83960144 0.88632858 -68.08813843 0.88618256 -67.31390381 0.8860321 C-64.83033358 0.88672871 -62.34683837 0.89450933 -59.86328125 0.90234375 C-58.14121034 0.90420882 -56.41913889 0.90563231 -54.69706726 0.90663147 C-50.16460709 0.9104496 -45.63217896 0.92027389 -41.09973145 0.93133545 C-36.47469516 0.94156469 -31.84965371 0.94613234 -27.22460938 0.95117188 C-18.1497255 0.96189677 -9.07486542 0.97896477 0 1 C0 0.67 0 0.34 0 0 Z " fill="#8A8A8A" transform="translate(255,361)"/>
<path d="M0 0 C-1.49097658 3.7952131 -3.75700849 5.61042731 -7 8 C-4.18918919 0 -4.18918919 0 0 0 Z " fill="#787878" transform="translate(115,97)"/>
</svg>
